<svg xmlns="http://www.w3.org/2000/svg" fill="none" viewBox="-0.5 -0.5 48 48"><path fill="#000" fill-rule="evenodd" d="M6.116 9.818c1.83 1.068 4.73 2.898 5.95 4.577.152.305.61 0 .304-.306-1.83-2.746-3.355-3.661-6.102-4.728-.305-.153-.457.305-.152.457ZM23.202 12.106c.305-.915 1.83-4.577 2.899-5.95.152-.305-.153-.457-.306-.305-1.83 1.831-2.593 3.661-3.05 6.103 0 .305.457.457.457.152ZM24.575 12.258c1.678-3.05 6.712-9.458 8.085-6.255.763 1.984-.305 5.645-.152 8.086 0 1.068 1.525 1.678 1.525 4.882 0 .305.458.305.458 0 0-3.51-1.373-3.967-1.373-4.882-.153-2.441.915-4.73.61-7.17-.305-2.746-2.136-3.051-3.967-1.83-2.135 1.525-4.118 4.728-5.339 7.016-.457.153 0 .458.153.153Z" clip-rule="evenodd"/><path fill="#000" fill-rule="evenodd" d="M10.692 16.224c4.882-3.813 13.73-5.339 19.07-.915.305.153.457-.152.305-.305-5.645-5.034-14.035-3.814-19.68.915-.152.153.153.458.305.306Z" clip-rule="evenodd"/><path fill="#000" fill-rule="evenodd" d="M31.134 5.851c-2.746 1.22-3.661 4.424-4.118 7.475 0 .305.457.458.457.153.61-2.288 1.831-5.797 3.814-7.17.305-.153.153-.61-.153-.458ZM30.371 10.276c-.61.457-.61.457-.915 1.372-.152.306.153.458.306.306.762-.458.762-.61.915-1.373.152-.306-.153-.61-.306-.306ZM30.982 12.259c-.61 0-.458 0-.915.457-.306.153 0 .61.152.458.61 0 .61 0 .915-.458.306-.152 0-.61-.152-.457ZM31.44 14.242c-.306-.306-.458-.153-.763 0-.306 0-.306.457 0 .457.458.306.458.153.763 0 .305 0 .305-.457 0-.457ZM3.98 9.055C1.387 9.512-.139 10.732.166 14.24c0 .458.763 5.492 1.526 7.17.305.763 1.83 2.9 2.288 2.289.305-.458-.762-.458-1.678-2.594-.458-1.372-.61-2.745-.915-4.271-.61-3.966-1.526-6.407 2.593-7.322.458 0 .305-.458 0-.458ZM5.353 21.87c-2.593 3.813-3.509 8.39-1.83 12.661-1.984 2.136-3.052 4.73-3.51 7.476 0 .152 0 .305.153.305.458.152.153-1.068 1.678-4.12 1.526-3.05 2.746-3.05 2.441-3.66-.762-1.984-1.068-4.12-.762-6.255.61-4.882 2.593-5.95 2.135-6.407-.152-.153-.305-.153-.305 0ZM34.338 19.123c2.899 2.442 2.746 3.814 3.051 5.492.305 1.526.61 3.357.61 4.882 0 .306.763.763 2.136 2.44 1.373 1.984 1.068 2.594 1.525 2.747 2.747 1.22 4.577 4.271 4.882 7.017 0 .306.458.306.458 0-.153-3.203-2.136-6.254-4.73-7.627-.61-1.984-1.83-3.509-3.203-4.882 0-1.678-.457-3.203-.762-4.882-.458-2.135-.458-3.203-3.51-5.797-.457 0-.762.458-.457.61Z" clip-rule="evenodd"/><path fill="#000" fill-rule="evenodd" d="M14.201 25.836c-.915.61-3.203 1.678-4.424 2.44-1.22.61-2.44 1.526-3.661 2.136-1.983 1.069-3.967 1.83-5.95 2.746-.305.153-.152.61.153.458 4.271-1.83 5.339-1.373 14.187-7.323.153-.152 0-.61-.305-.457ZM10.998 29.955c-2.136 1.373-1.831 1.068-4.577 3.356-.305.153 0 .61.305.305 2.44-1.525 2.44-1.373 4.577-3.356.152-.153-.153-.458-.305-.305ZM28.693 24.463c5.798 1.067 12.968 3.203 17.544 6.864.306.153.458-.152.306-.305-5.34-4.729-10.832-6.102-17.85-7.017-.305-.153-.305.305 0 .458ZM31.44 27.514c.457.305 1.678.915 2.288 1.373.457.306 2.899 1.526 3.509 1.83.305.153.457-.305.305-.457-1.526-1.068-2.746-1.983-4.424-2.593-1.373-.61-1.678-.61-1.831-.458 0 .153 0 .305.153.305Z" clip-rule="evenodd"/><path fill="#000" fill-rule="evenodd" d="M10.387 23.242c-1.372 2.136-.152 3.661-.457 5.034-.153.306.305.458.457.153.61-1.373-.152-3.204.458-5.034 0-.153-.305-.458-.458-.153ZM1.997 41.549c3.204-.457 4.424-4.576 4.424-4.73.457-.61 1.83-.762 2.44-2.898.153-.305-.305-.457-.457-.152-.763 1.983-1.983 1.678-2.593 2.593-.305.458-.458.916-.61 1.373-.61 1.22-1.984 2.899-3.356 3.356-.306 0-.153.458.152.458ZM16.49 12.716c-1.068.763-1.678 1.22-2.289 2.746-.153.306.153.458.458.306.915-1.221.458-.306 2.288-2.594 0-.305-.305-.61-.458-.458ZM14.659 13.48c-1.22-2.9-2.289-4.883-4.882-7.018-.152-.153-.457.152-.305.305 2.441 2.593 4.577 7.17 5.034 7.017.153 0 .153-.152.153-.305ZM21.524 12.564c.152.306.305.763.61 1.22.457.61.763 1.068 1.068 1.679.152.305.61.152.457-.153-.457-1.525-.762-1.984-1.678-2.899-.305-.305-.61-.152-.457.153ZM27.778 20.039c.61.763 1.678 1.22 2.136 1.983.61 1.22.458 3.204.915 4.577 1.068 3.051 3.661 5.034 6.865 5.95 1.068 1.983 2.593 3.66 4.882 3.203.305 0 .153-.458 0-.458-1.984.306-3.356-1.373-4.12-3.203-.151-.306-1.982-.458-4.118-2.136-3.051-2.441-2.898-5.187-3.203-6.713-.61-2.593-1.831-2.288-2.747-3.355-.457-.306-.762-.153-.61.152ZM18.778 21.106c0 .458 1.068 1.22 1.526 1.831.152.153.305.153.305.153.305 0 .305-.306.61-.915.457-.916.61-1.069.457-1.374-.152-.152-.152-.305-.152-.457.152-.306.305.457.762.305.458-.153.763-.458 1.068-.61.61-.458-1.068-1.373-1.83-1.526-.305-.152-.458.305-.153.458.458.152.915.457 1.22.762-.305.153-.152.153-.457.153-.61-.915-1.983 0-1.373 1.068-.305.61-.305.458-.457.915l-.916-.915c.153-.763-.61-1.22-1.22-.61l-.306.305c-.305-.153.61-1.983 2.289-1.983.305 0 .305-.458 0-.458-2.594-.152-4.272 3.051-2.136 3.204.458 0 .458 0 .763-.306Z" clip-rule="evenodd"/><path fill="#000" fill-rule="evenodd" d="M21.219 24.768c0-1.068 0-1.068-.61-2.44 0-.306-.458-.153-.458.152.152 1.678.152 1.372.61 2.44.153.306.61.153.458-.152Z" clip-rule="evenodd"/><path fill="#000" fill-rule="evenodd" d="M15.422 32.243c1.678 1.22 2.745-2.594 4.729-5.645.915-1.372 1.068-1.525 2.135-.61 2.747 2.136 3.662 5.187 5.035 3.814l.305-.305c.152-.305-.305-.458-.458-.153-.915 1.068-1.22-.61-3.05-2.593-1.221-1.373-2.747-2.899-3.968-1.526-1.22 1.221-3.203 6.103-3.813 6.56-.61.458-.763-.152-1.068.153 0 .153.153.305.153.305ZM23.354 18.056c.458-1.984 1.83-3.204 3.967-2.899.762.153.915.458 1.067.153.611-.763-5.033-2.594-5.491 2.593 0 .458.457.458.457.153ZM10.387 18.818c.916-1.068 2.289-1.373 3.357-.915 1.983.763 1.83 2.136 2.288 1.984.457-.306-.763-1.831-1.22-2.137-2.747-2.44-5.34.763-4.882 1.068.152.153.305 0 .457 0Z" clip-rule="evenodd"/><path fill="#000" fill-rule="evenodd" d="M12.218 18.208c-1.983.61-3.509 3.967 0 4.119 3.05.153 4.577-3.051 3.661-3.051-.152 0-.305.152-.305.152-.152 2.136-5.34 2.899-4.73.915.611-1.983 1.831-1.677 1.526-2.135h-.152Z" clip-rule="evenodd"/><path fill="#000" fill-rule="evenodd" d="M11.913 21.716c-.305-.305-.153-1.067.152-1.373.61-.61 1.831-.61 2.136.306.306.915-2.136 1.678-2.593.915l.305.152ZM22.897 18.208c.762 1.22 2.746 1.83 4.424 1.22.762-.305 2.288-1.372 1.83-1.678-.458-.305-.305.61-2.135 1.068-1.221.306-3.052 0-3.814-.762 0-.306-.458-.153-.305.152ZM25.185 15.767c1.373-.305 2.746.153 3.509 1.373.152.305.61 0 .457-.152-.763-1.678-2.288-2.441-4.118-1.526-.306 0-.153.458.152.306Z" clip-rule="evenodd"/><path fill="#000" fill-rule="evenodd" d="M27.473 18.971c.61-1.068-1.525-1.983-2.44-.763-.458.61-.306 1.068.457 1.22 1.678.153 2.593-1.067 1.983-.457ZM22.44 26.446c-1.679-.458-2.9.763-3.968 2.136-.152.152.153.457.306.305.763-.763 1.525-1.373 2.593-1.678 1.678-.306 2.594.915 2.899.61.457-.305-1.22-1.22-1.83-1.373ZM3.98 11.496c2.899-.153 2.746 5.034 5.95 5.34.305 0 .305-.458 0-.458-2.594-.458-2.289-6.102-6.102-5.34-.153 0-.153.458.152.458ZM4.59 15.005c.61.457.458.457 1.678.61.306.153.458-.305.153-.458-.915-.61-.915-.61-1.678-.61-.305-.153-.458.305-.153.458ZM3.98 17.293c1.068.305.916.152 1.983 0 .305 0 .305-.458 0-.458-1.22-.305-1.373-.152-1.983 0-.305 0-.305.458 0 .458ZM5.048 20.039c1.373-.61 1.22-.61 1.983-1.373.306-.153 0-.61-.153-.458-1.372.458-1.525.763-1.983 1.373-.457.152-.152.61.153.458Z" clip-rule="evenodd"/></svg>